<svg id="visual" viewBox="0 0 900 600" width="900" height="600" xmlns="http://www.w3.org/2000/svg" xmlns:xlink="http://www.w3.org/1999/xlink" version="1.1"><path d="M0 67L18.8 74C37.7 81 75.3 95 112.8 93C150.3 91 187.7 73 225.2 72C262.7 71 300.3 87 337.8 96C375.3 105 412.7 107 450.2 104C487.7 101 525.3 93 562.8 88C600.3 83 637.7 81 675.2 76C712.7 71 750.3 63 787.8 68C825.3 73 862.7 91 881.3 100L900 109L900 0L881.3 0C862.7 0 825.3 0 787.8 0C750.3 0 712.7 0 675.2 0C637.7 0 600.3 0 562.8 0C525.3 0 487.7 0 450.2 0C412.7 0 375.3 0 337.8 0C300.3 0 262.7 0 225.2 0C187.7 0 150.3 0 112.8 0C75.3 0 37.7 0 18.8 0L0 0Z" fill="#fbbdd5"></path><path d="M0 121L18.8 130C37.7 139 75.3 157 112.8 161C150.3 165 187.7 155 225.2 152C262.7 149 300.3 153 337.8 155C375.3 157 412.7 157 450.2 155C487.7 153 525.3 149 562.8 149C600.3 149 637.7 153 675.2 153C712.7 153 750.3 149 787.8 151C825.3 153 862.7 161 881.3 165L900 169L900 107L881.3 98C862.7 89 825.3 71 787.8 66C750.3 61 712.7 69 675.2 74C637.7 79 600.3 81 562.8 86C525.3 91 487.7 99 450.2 102C412.7 105 375.3 103 337.8 94C300.3 85 262.7 69 225.2 70C187.7 71 150.3 89 112.8 91C75.3 93 37.7 79 18.8 72L0 65Z" fill="#f9adcb"></path><path d="M0 343L18.8 338C37.7 333 75.3 323 112.8 317C150.3 311 187.7 309 225.2 312C262.7 315 300.3 323 337.8 324C375.3 325 412.7 319 450.2 319C487.7 319 525.3 325 562.8 332C600.3 339 637.7 347 675.2 341C712.7 335 750.3 315 787.8 313C825.3 311 862.7 327 881.3 335L900 343L900 167L881.3 163C862.7 159 825.3 151 787.8 149C750.3 147 712.7 151 675.2 151C637.7 151 600.3 147 562.8 147C525.3 147 487.7 151 450.2 153C412.7 155 375.3 155 337.8 153C300.3 151 262.7 147 225.2 150C187.7 153 150.3 163 112.8 159C75.3 155 37.7 137 18.8 128L0 119Z" fill="#f79dc1"></path><path d="M0 487L18.8 471C37.7 455 75.3 423 112.8 411C150.3 399 187.7 407 225.2 410C262.7 413 300.3 411 337.8 406C375.3 401 412.7 393 450.2 403C487.7 413 525.3 441 562.8 450C600.3 459 637.7 449 675.2 437C712.7 425 750.3 411 787.8 410C825.3 409 862.7 421 881.3 427L900 433L900 341L881.3 333C862.7 325 825.3 309 787.8 311C750.3 313 712.7 333 675.2 339C637.7 345 600.3 337 562.8 330C525.3 323 487.7 317 450.2 317C412.7 317 375.3 323 337.8 322C300.3 321 262.7 313 225.2 310C187.7 307 150.3 309 112.8 315C75.3 321 37.7 331 18.8 336L0 341Z" fill="#ee89af"></path><path d="M0 601L18.8 601C37.7 601 75.3 601 112.8 601C150.3 601 187.7 601 225.2 601C262.7 601 300.3 601 337.8 601C375.3 601 412.7 601 450.2 601C487.7 601 525.3 601 562.8 601C600.3 601 637.7 601 675.2 601C712.7 601 750.3 601 787.8 601C825.3 601 862.7 601 881.3 601L900 601L900 431L881.3 425C862.7 419 825.3 407 787.8 408C750.3 409 712.7 423 675.2 435C637.7 447 600.3 457 562.8 448C525.3 439 487.7 411 450.2 401C412.7 391 375.3 399 337.8 404C300.3 409 262.7 411 225.2 408C187.7 405 150.3 397 112.8 409C75.3 421 37.7 453 18.8 469L0 485Z" fill="#e5759d"></path></svg>